<svg xmlns="http://www.w3.org/2000/svg" version="1.1" xmlns:xlink="http://www.w3.org/1999/xlink" xmlns:svgjs="http://svgjs.dev/svgjs" width="1448" height="550" preserveAspectRatio="none" viewBox="0 0 1448 550"><g mask="url(&quot;#SvgjsMask1206&quot;)" fill="none"><rect width="1448" height="550" x="0" y="0" fill="url(&quot;#SvgjsLinearGradient1207&quot;)"></rect><path d="M1448 0L1024.34 0L1448 1.23z" fill="rgba(255, 255, 255, .1)"></path><path d="M1024.34 0L1448 1.23L1448 29.35L536.7199999999999 0z" fill="rgba(255, 255, 255, .075)"></path><path d="M536.72 0L1448 29.35L1448 132.12L462.22 0z" fill="rgba(255, 255, 255, .05)"></path><path d="M462.22 0L1448 132.12L1448 230.67000000000002L355.54 0z" fill="rgba(255, 255, 255, .025)"></path><path d="M0 550L198.51 550L0 321.52z" fill="rgba(0, 0, 0, .1)"></path><path d="M0 321.52L198.51 550L225.06 550L0 285.97999999999996z" fill="rgba(0, 0, 0, .075)"></path><path d="M0 285.98L225.06 550L863.06 550L0 117.07000000000002z" fill="rgba(0, 0, 0, .05)"></path><path d="M0 117.07000000000005L863.06 550L1068.99 550L0 72.82000000000005z" fill="rgba(0, 0, 0, .025)"></path></g><defs><mask id="SvgjsMask1206"><rect width="1448" height="550" fill="#ffffff"></rect></mask><linearGradient x1="15.5%" y1="-40.82%" x2="84.5%" y2="140.82%" gradientUnits="userSpaceOnUse" id="SvgjsLinearGradient1207"><stop stop-color="#0e2a47" offset="0"></stop><stop stop-color="rgba(4, 4, 34, 1)" offset="1"></stop></linearGradient></defs></svg>